<svg id="Layer_1" data-name="Layer 1" xmlns="http://www.w3.org/2000/svg" viewBox="0 0 134.47 130.22"><defs><style>.cls-1{fill:#4790ac;}</style></defs><path class="cls-1" d="M30,63.07A30.46,30.46,0,0,1,0,32.25,30.46,30.46,0,0,1,30,1.43,30.46,30.46,0,0,1,60,32.25,30.46,30.46,0,0,1,30,63.07m0-52.72A21.67,21.67,0,0,0,8.66,32.26,21.66,21.66,0,0,0,30,54.16a21.65,21.65,0,0,0,21.36-21.9A21.65,21.65,0,0,0,30,10.35Z"/><path class="cls-1" d="M94.88,63.07a30.46,30.46,0,0,1-30-30.82,30,30,0,1,1,60,0,30.46,30.46,0,0,1-30,30.82m0-52.72A21.67,21.67,0,0,0,73.52,32.26a21.37,21.37,0,1,0,42.72,0A21.65,21.65,0,0,0,94.88,10.35Z"/><path class="cls-1" d="M94.88,130.22a30.83,30.83,0,1,1,30-30.82,30.46,30.46,0,0,1-30,30.82m0-52.72a21.92,21.92,0,1,0,21.36,21.91A21.67,21.67,0,0,0,94.88,77.5Z"/><path class="cls-1" d="M128.72,0a5.83,5.83,0,0,1,5.75,5.9A5.75,5.75,0,1,1,123,5.9,5.82,5.82,0,0,1,128.72,0"/></svg>